<svg xmlns="http://www.w3.org/2000/svg" width="1024" height="1024" viewBox="0 0 1024 1024">
  <rect x="0" y="0" width="1024" height="1024" fill="#F7F2E2"/>
  <path d="M212 470 L212 410 A120 120 0 0 1 332 290 L692 290 A120 120 0 0 1 812 410 L812 470 Z" fill="#2A2723"/>
  <path d="M212 470 L812 470 L812 716 A64 64 0 0 1 748 780 L276 780 A64 64 0 0 1 212 716 Z" fill="#F7BDC9"/>
  <rect x="212" y="462" width="600" height="18" fill="#F7F2E2"/>
  <rect x="452" y="412" width="120" height="148" rx="32" ry="32" fill="#F7F2E2"/>
  <circle cx="512" cy="472" r="20" fill="#2A2723"/>
  <rect x="503" y="472" width="18" height="50" rx="9" ry="9" fill="#2A2723"/>
</svg>
